<?xml version="1.0" standalone="no"?>
<!DOCTYPE svg PUBLIC "-//W3C//DTD SVG 20010904//EN"
 "http://www.w3.org/TR/2001/REC-SVG-20010904/DTD/svg10.dtd">
<svg version="1.0" xmlns="http://www.w3.org/2000/svg"
 width="188.000000pt" height="265.000000pt" viewBox="0 0 188.000000 265.000000"
 preserveAspectRatio="xMidYMid meet">

<g transform="translate(0.000000,265.000000) scale(0.100000,-0.100000)"
fill="#000000" stroke="none">
<path d="M1550 2553 c-51 -19 -227 -114 -296 -159 -210 -142 -339 -282 -443
-484 -162 -315 -205 -454 -231 -740 -15 -177 -11 -178 26 -6 57 263 125 464
200 588 l36 59 74 -79 c81 -88 186 -161 318 -222 165 -75 165 -66 4 67 -163
133 -248 212 -282 261 -24 35 -27 47 -21 81 4 23 11 41 16 41 5 0 9 6 9 14 0
19 169 180 269 255 96 73 208 141 232 141 23 0 37 -43 54 -177 31 -234 10
-451 -71 -730 -37 -129 -164 -356 -279 -497 -22 -28 -63 -80 -90 -116 l-49
-65 73 69 c180 168 270 286 360 469 77 159 156 372 172 467 19 106 16 370 -5
515 -20 140 -45 255 -54 254 -4 0 -14 -3 -22 -6z" fill="rgb(0, 2, 130)"/>
<path d="M549 1668 c-136 -98 -277 -298 -362 -513 -51 -129 -109 -428 -79
-413 131 68 218 98 323 113 l45 7 13 168 c19 264 57 498 101 614 11 28 20 52
20 54 0 9 -23 -2 -61 -30z" fill="rgb(255, 29, 36)"/>
<path d="M870 1259 c-91 -142 -210 -419 -244 -571 -17 -77 75 43 144 187 70
145 162 426 146 442 -3 3 -23 -23 -46 -58z" fill="rgb(255, 29, 36)"/>
<path d="M1353 943 c-43 -38 -109 -102 -148 -143 -38 -41 -107 -114 -152 -161
-46 -47 -83 -89 -83 -93 0 -5 15 -49 34 -100 19 -50 46 -144 61 -209 15 -64
31 -119 35 -122 4 -3 29 19 55 47 126 140 216 324 261 530 16 74 32 318 21
318 -4 0 -41 -30 -84 -67z" fill="rgb(255, 29, 36)"/>
</g>
</svg>
