<svg width="58" height="58" viewBox="0 0 58 58" fill="none" xmlns="http://www.w3.org/2000/svg">
<path d="M29 38.0625C34.0051 38.0625 38.0625 34.0051 38.0625 29C38.0625 23.9949 34.0051 19.9375 29 19.9375C23.9949 19.9375 19.9375 23.9949 19.9375 29C19.9375 34.0051 23.9949 38.0625 29 38.0625Z" stroke="#DA9A00" stroke-width="6" stroke-linecap="round" stroke-linejoin="round"/>
<path d="M38.9688 8.15625H19.0312C13.0252 8.15625 8.15625 13.0252 8.15625 19.0312V38.9688C8.15625 44.9748 13.0252 49.8438 19.0312 49.8438H38.9688C44.9748 49.8438 49.8438 44.9748 49.8438 38.9688V19.0312C49.8438 13.0252 44.9748 8.15625 38.9688 8.15625Z" stroke="#DA9A00" stroke-width="6" stroke-linecap="round" stroke-linejoin="round"/>
<path d="M40.7812 19.0312C41.7823 19.0312 42.5938 18.2198 42.5938 17.2188C42.5938 16.2177 41.7823 15.4062 40.7812 15.4062C39.7802 15.4062 38.9688 16.2177 38.9688 17.2188C38.9688 18.2198 39.7802 19.0312 40.7812 19.0312Z" fill="#DA9A00"/>
</svg>
