<svg width="96" height="96" viewBox="0 0 96 96" fill="none" xmlns="http://www.w3.org/2000/svg">
<path d="M12 24V54" stroke="#DA9A00" stroke-width="6" stroke-linecap="round" stroke-linejoin="round"/>
<path d="M20.325 81C23.3267 76.396 27.4296 72.6136 32.2621 69.9954C37.0945 67.3773 42.5038 66.0061 48 66.0061C53.4961 66.0061 58.9054 67.3773 63.7378 69.9954C68.5703 72.6136 72.6732 76.396 75.675 81" stroke="#DA9A00" stroke-width="6" stroke-linecap="round" stroke-linejoin="round"/>
<path d="M84 24L48 36L12 24L48 12L84 24Z" stroke="#DA9A00" stroke-width="6" stroke-linecap="round" stroke-linejoin="round"/>
<path d="M63.4875 30.825C66.2394 33.8302 68.0576 37.5711 68.7204 41.5916C69.3831 45.6122 68.8619 49.7387 67.2202 53.4681C65.5784 57.1976 62.8871 60.3689 59.4744 62.5953C56.0616 64.8218 52.0748 66.0073 48 66.0073C43.9252 66.0073 39.9384 64.8218 36.5256 62.5953C33.1129 60.3689 30.4216 57.1976 28.7799 53.4681C27.1381 49.7387 26.6169 45.6122 27.2797 41.5916C27.9424 37.5711 29.7606 33.8302 32.5125 30.825" stroke="#DA9A00" stroke-width="6" stroke-linecap="round" stroke-linejoin="round"/>
</svg>
