<svg width="58" height="58" viewBox="0 0 58 58" fill="none" xmlns="http://www.w3.org/2000/svg">
<path d="M10.2858 40.1016C7.5872 35.5486 6.64326 30.1672 7.6312 24.9676C8.61914 19.768 11.471 15.1077 15.6515 11.8618C19.8319 8.61585 25.0534 7.00743 30.3356 7.33847C35.6179 7.66951 40.5977 9.91725 44.3402 13.6597C48.0827 17.4022 50.3304 22.382 50.6615 27.6643C50.9925 32.9466 49.3841 38.168 46.1381 42.3485C42.8922 46.5289 38.232 49.3808 33.0324 50.3687C27.8327 51.3567 22.4513 50.4127 17.8983 47.7141V47.7141L10.3764 49.8438C10.0683 49.9339 9.74152 49.9395 9.43045 49.8599C9.11938 49.7804 8.83544 49.6186 8.60839 49.3915C8.38135 49.1645 8.21957 48.8806 8.13999 48.5695C8.06042 48.2584 8.066 47.9317 8.15613 47.6235L10.2858 40.1016Z" stroke="#DA9A00" stroke-width="6" stroke-linecap="round" stroke-linejoin="round"/>
<path d="M34.4602 41.6876C32.0754 41.6935 29.7128 41.2282 27.5083 40.3183C25.3039 39.4084 23.3009 38.0719 21.6146 36.3856C19.9282 34.6992 18.5917 32.6962 17.6818 30.4918C16.7719 28.2873 16.3066 25.9248 16.3126 23.5399C16.3186 21.8614 16.9896 20.2536 18.1786 19.0688C19.3676 17.884 20.9778 17.2188 22.6563 17.2188V17.2188C22.9332 17.2166 23.2057 17.2891 23.4449 17.4286C23.6841 17.5682 23.8813 17.7696 24.0157 18.0118L26.6665 22.6336C26.8241 22.9146 26.905 23.2321 26.901 23.5543C26.897 23.8764 26.8083 24.1918 26.6438 24.4688L24.5141 28.0258C25.605 30.4525 27.5476 32.3951 29.9743 33.486L33.5313 31.3563C33.8083 31.1918 34.1237 31.1031 34.4459 31.0991C34.768 31.0951 35.0855 31.176 35.3665 31.3336L39.9883 33.9844C40.2305 34.1188 40.4319 34.316 40.5715 34.5552C40.711 34.7944 40.7835 35.0669 40.7813 35.3438C40.7754 37.0205 40.1082 38.6272 38.9247 39.815C37.7412 41.0027 36.1369 41.6756 34.4602 41.6876V41.6876Z" stroke="#DA9A00" stroke-width="6" stroke-linecap="round" stroke-linejoin="round"/>
</svg>
