<svg width="96" height="96" viewBox="0 0 96 96" fill="none" xmlns="http://www.w3.org/2000/svg">
<path d="M48 60C56.2843 60 63 53.2843 63 45C63 36.7157 56.2843 30 48 30C39.7157 30 33 36.7157 33 45C33 53.2843 39.7157 60 48 60Z" stroke="#DA9A00" stroke-width="6" stroke-linecap="round" stroke-linejoin="round"/>
<path d="M78 15H18C16.3431 15 15 16.3431 15 18V78C15 79.6569 16.3431 81 18 81H78C79.6569 81 81 79.6569 81 78V18C81 16.3431 79.6569 15 78 15Z" stroke="#DA9A00" stroke-width="6" stroke-linecap="round" stroke-linejoin="round"/>
<path d="M21.675 81C23.0345 75.0348 26.3797 69.7082 31.1624 65.8928C35.9451 62.0774 41.8819 59.9995 48 59.9995C54.1182 59.9995 60.055 62.0774 64.8377 65.8928C69.6204 69.7082 72.9656 75.0348 74.325 81" stroke="#DA9A00" stroke-width="6" stroke-linecap="round" stroke-linejoin="round"/>
</svg>
